<svg id="SvgjsSvg1001" width="288" height="288" xmlns="http://www.w3.org/2000/svg" version="1.1" xmlns:xlink="http://www.w3.org/1999/xlink" xmlns:svgjs="http://svgjs.com/svgjs"><defs id="SvgjsDefs1002"></defs><g id="SvgjsG1008"><svg xmlns="http://www.w3.org/2000/svg" data-name="Layer 1" viewBox="0 0 32 32" width="288" height="288"><path d="M21.5,6V7.5H12A2.5,2.5,0,0,0,9.5,10V23.5H8A1.5,1.5,0,0,1,6.5,22V6A1.5,1.5,0,0,1,8,4.5H20A1.5,1.5,0,0,1,21.5,6Z" fill="#b1a3a3" class="color000 svgShape"></path><path d="M24,8.5H12A1.5,1.5,0,0,0,10.5,10V26A1.5,1.5,0,0,0,12,27.5H24A1.5,1.5,0,0,0,25.5,26V10A1.5,1.5,0,0,0,24,8.5Zm-6,13H14a.5.5,0,0,1,0-1h4a.5.5,0,0,1,0,1Zm4-4H14a.5.5,0,0,1,0-1h8a.5.5,0,0,1,0,1Zm0-4H14a.5.5,0,0,1,0-1h8a.5.5,0,0,1,0,1Z" fill="#b1a3a3" class="color000 svgShape"></path></svg></g></svg>